<svg xmlns="http://www.w3.org/2000/svg" viewBox="0 0 750 500"><g id="freepik--background-complete--inject-19"><polygon points="255.46 275.21 92.48 275.21 104.53 159.11 268.89 159.11 255.46 275.21" style="fill:#f5f5f5"></polygon><path d="M110.4,255.73c-.15,0,1.54-17.48,3.76-39s4.14-39,4.28-39-1.54,17.47-3.76,39S110.54,255.74,110.4,255.73Z" style="fill:#e0e0e0"></path><path d="M140.07,181.68a65.35,65.35,0,0,1-8.18.26,65.35,65.35,0,0,1-8.18-.26,63.13,63.13,0,0,1,8.18-.26A63.13,63.13,0,0,1,140.07,181.68Z" style="fill:#e0e0e0"></path><path d="M209.68,181.68c0,.14-14.59.26-32.58.26s-32.59-.12-32.59-.26,14.59-.26,32.59-.26S209.68,181.53,209.68,181.68Z" style="fill:#e0e0e0"></path><path d="M138.14,222.93a63.13,63.13,0,0,1-8.18.26,63.13,63.13,0,0,1-8.18-.26,65.35,65.35,0,0,1,8.18-.26A65.35,65.35,0,0,1,138.14,222.93Z" style="fill:#e0e0e0"></path><path d="M207.75,222.93c0,.15-14.59.26-32.58.26s-32.59-.11-32.59-.26,14.59-.26,32.59-.26S207.75,222.79,207.75,222.93Z" style="fill:#e0e0e0"></path><path d="M185.55,242c0,.15-14.59.26-32.58.26s-32.59-.11-32.59-.26,14.59-.26,32.59-.26S185.55,241.81,185.55,242Z" style="fill:#e0e0e0"></path><path d="M147.28,193.33c0,.14-5.15.26-11.51.26s-11.51-.12-11.51-.26,5.16-.27,11.51-.27S147.28,193.18,147.28,193.33Z" style="fill:#e0e0e0"></path><path d="M146.7,210.4c0,.15-5.16.26-11.51.26s-11.51-.11-11.51-.26,5.15-.26,11.51-.26S146.7,210.26,146.7,210.4Z" style="fill:#e0e0e0"></path><path d="M166.16,234.81c0,.14-5.16.26-11.51.26s-11.51-.12-11.51-.26,5.15-.26,11.51-.26S166.16,234.66,166.16,234.81Z" style="fill:#e0e0e0"></path><path d="M231,193.33c0,.14-13.16.26-29.4.26s-29.41-.12-29.41-.26,13.17-.27,29.41-.27S231,193.18,231,193.33Z" style="fill:#e0e0e0"></path><path d="M212.87,211.39c0,.15-13.16.26-29.4.26s-29.4-.11-29.4-.26,13.16-.26,29.4-.26S212.87,211.25,212.87,211.39Z" style="fill:#e0e0e0"></path><path d="M233.11,234.81c0,.14-13.17.26-29.4.26s-29.41-.12-29.41-.26,13.17-.26,29.41-.26S233.11,234.66,233.11,234.81Z" style="fill:#e0e0e0"></path><path d="M179.42,255.73c0,.14-13.17.26-29.41.26s-29.4-.12-29.4-.26,13.16-.26,29.4-.26S179.42,255.58,179.42,255.73Z" style="fill:#e0e0e0"></path><path d="M244.45,255.73c0,.14-13.17.26-29.4.26s-29.41-.12-29.41-.26,13.16-.26,29.41-.26S244.45,255.58,244.45,255.73Z" style="fill:#e0e0e0"></path><path d="M179.41,262.53c0,.15-13.16.26-29.4.26s-29.41-.11-29.41-.26,13.17-.26,29.41-.26S179.41,262.39,179.41,262.53Z" style="fill:#e0e0e0"></path><path d="M182.27,198.23c0,.14-13.16.26-29.4.26s-29.41-.12-29.41-.26,13.17-.26,29.41-.26S182.27,198.08,182.27,198.23Z" style="fill:#e0e0e0"></path><path d="M166.59,193.39a56,56,0,0,1-7.57.26,56.13,56.13,0,0,1-7.58-.26,54.23,54.23,0,0,1,7.58-.26A54.13,54.13,0,0,1,166.59,193.39Z" style="fill:#e0e0e0"></path><path d="M136.22,228.54a56.13,56.13,0,0,1-7.58.26,56,56,0,0,1-7.57-.26,56,56,0,0,1,7.57-.26A56.13,56.13,0,0,1,136.22,228.54Z" style="fill:#e0e0e0"></path><path d="M135.86,234.81a56,56,0,0,1-7.57.26,56.13,56.13,0,0,1-7.58-.26,54.23,54.23,0,0,1,7.58-.26A54.13,54.13,0,0,1,135.86,234.81Z" style="fill:#e0e0e0"></path><path d="M267.09,171.39c0,.15-36.65.26-81.85.26s-81.87-.11-81.87-.26,36.65-.26,81.87-.26S267.09,171.25,267.09,171.39Z" style="fill:#e0e0e0"></path><circle cx="114.42" cy="165.86" r="1.94" style="fill:#fff"></circle><circle cx="122.75" cy="165.86" r="1.94" style="fill:#fff"></circle><circle cx="131.08" cy="165.86" r="1.94" style="fill:#fff"></circle><polygon points="678.65 217.16 515.67 217.16 527.72 101.07 692.08 101.07 678.65 217.16" style="fill:#f5f5f5"></polygon><path d="M533.59,197.68c-.14,0,1.54-17.48,3.76-39s4.14-39,4.28-38.94-1.54,17.47-3.76,39S533.73,197.69,533.59,197.68Z" style="fill:#e0e0e0"></path><path d="M563.26,123.63a128.81,128.81,0,0,1-16.36,0,128.81,128.81,0,0,1,16.36,0Z" style="fill:#e0e0e0"></path><path d="M632.88,123.63c0,.14-14.59.26-32.59.26s-32.59-.12-32.59-.26,14.59-.26,32.59-.26S632.88,123.49,632.88,123.63Z" style="fill:#e0e0e0"></path><path d="M561.34,164.89a129,129,0,0,1-16.37,0,129,129,0,0,1,16.37,0Z" style="fill:#e0e0e0"></path><path d="M631,164.89c0,.14-14.59.26-32.59.26s-32.59-.12-32.59-.26,14.59-.26,32.59-.26S631,164.74,631,164.89Z" style="fill:#e0e0e0"></path><path d="M608.75,183.91c0,.14-14.59.26-32.59.26s-32.59-.12-32.59-.26,14.59-.26,32.59-.26S608.75,183.76,608.75,183.91Z" style="fill:#e0e0e0"></path><path d="M570.48,135.28c0,.14-5.16.26-11.51.26s-11.51-.12-11.51-.26S552.61,135,559,135,570.48,135.13,570.48,135.28Z" style="fill:#e0e0e0"></path><path d="M569.89,152.35c0,.15-5.15.26-11.51.26s-11.51-.11-11.51-.26,5.15-.26,11.51-.26S569.89,152.21,569.89,152.35Z" style="fill:#e0e0e0"></path><path d="M589.35,176.76c0,.14-5.15.26-11.51.26s-11.51-.12-11.51-.26,5.15-.26,11.51-.26S589.35,176.62,589.35,176.76Z" style="fill:#e0e0e0"></path><path d="M654.22,135.28c0,.14-13.17.26-29.41.26s-29.4-.12-29.4-.26,13.16-.26,29.4-.26S654.22,135.13,654.22,135.28Z" style="fill:#e0e0e0"></path><path d="M636.07,153.34c0,.15-13.17.26-29.41.26s-29.4-.11-29.4-.26,13.16-.26,29.4-.26S636.07,153.2,636.07,153.34Z" style="fill:#e0e0e0"></path><path d="M656.3,176.76c0,.14-13.16.26-29.4.26s-29.4-.12-29.4-.26,13.16-.26,29.4-.26S656.3,176.62,656.3,176.76Z" style="fill:#e0e0e0"></path><path d="M602.61,197.68c0,.14-13.17.26-29.4.26s-29.41-.12-29.41-.26,13.16-.26,29.41-.26S602.61,197.53,602.61,197.68Z" style="fill:#e0e0e0"></path><path d="M667.64,197.68c0,.14-13.16.26-29.4.26s-29.41-.12-29.41-.26,13.17-.26,29.41-.26S667.64,197.53,667.64,197.68Z" style="fill:#e0e0e0"></path><path d="M602.6,204.48c0,.15-13.16.26-29.4.26s-29.4-.11-29.4-.26,13.16-.26,29.4-.26S602.6,204.34,602.6,204.48Z" style="fill:#e0e0e0"></path><path d="M605.47,140.18c0,.14-13.17.26-29.41.26s-29.4-.12-29.4-.26,13.16-.26,29.4-.26S605.47,140,605.47,140.18Z" style="fill:#e0e0e0"></path><path d="M589.78,135.34a110.33,110.33,0,0,1-15.14,0,110.33,110.33,0,0,1,15.14,0Z" style="fill:#e0e0e0"></path><path d="M559.41,170.49a110.48,110.48,0,0,1-15.15,0,110.48,110.48,0,0,1,15.15,0Z" style="fill:#e0e0e0"></path><path d="M559.05,176.76a110.33,110.33,0,0,1-15.14,0,110.33,110.33,0,0,1,15.14,0Z" style="fill:#e0e0e0"></path><path d="M690.29,113.34c0,.15-36.66.26-81.86.26s-81.86-.11-81.86-.26,36.64-.26,81.86-.26S690.29,113.2,690.29,113.34Z" style="fill:#e0e0e0"></path><circle cx="537.61" cy="107.81" r="1.94" style="fill:#fff"></circle><circle cx="545.94" cy="107.81" r="1.94" style="fill:#fff"></circle><circle cx="554.27" cy="107.81" r="1.94" style="fill:#fff"></circle><polygon points="336.82 141.36 235.31 141.36 242.81 69.05 345.18 69.05 336.82 141.36" style="fill:#ebebeb"></polygon><path d="M246.47,129.22c-.14,0,.86-10.89,2.24-24.29s2.62-24.26,2.77-24.25-.86,10.9-2.25,24.3S246.61,129.24,246.47,129.22Z" style="fill:#e0e0e0"></path><path d="M265,83.1a50.05,50.05,0,0,1-10.19,0,50.05,50.05,0,0,1,10.19,0Z" style="fill:#e0e0e0"></path><path d="M308.31,83.1c0,.15-9.09.26-20.3.26s-20.3-.11-20.3-.26,9.09-.26,20.3-.26S308.31,83,308.31,83.1Z" style="fill:#e0e0e0"></path><path d="M263.75,108.8a50.05,50.05,0,0,1-10.19,0,50.05,50.05,0,0,1,10.19,0Z" style="fill:#e0e0e0"></path><path d="M307.11,108.8c0,.14-9.09.26-20.3.26s-20.3-.12-20.3-.26,9.09-.26,20.3-.26S307.11,108.66,307.11,108.8Z" style="fill:#e0e0e0"></path><path d="M293.28,120.64c0,.15-9.09.26-20.3.26s-20.29-.11-20.29-.26,9.08-.26,20.29-.26S293.28,120.5,293.28,120.64Z" style="fill:#e0e0e0"></path><path d="M269.44,90.36a50.28,50.28,0,0,1-7.17.26,50.08,50.08,0,0,1-7.16-.26,48.38,48.38,0,0,1,7.16-.26A48.58,48.58,0,0,1,269.44,90.36Z" style="fill:#e0e0e0"></path><path d="M269.08,101a48.58,48.58,0,0,1-7.17.26,48.58,48.58,0,0,1-7.17-.26,50.28,50.28,0,0,1,7.17-.26A50.28,50.28,0,0,1,269.08,101Z" style="fill:#e0e0e0"></path><path d="M281.2,116.19a48.58,48.58,0,0,1-7.17.26,48.58,48.58,0,0,1-7.17-.26,50.28,50.28,0,0,1,7.17-.26A50.28,50.28,0,0,1,281.2,116.19Z" style="fill:#e0e0e0"></path><path d="M321.6,90.36c0,.14-8.2.26-18.31.26S285,90.5,285,90.36s8.2-.26,18.32-.26S321.6,90.21,321.6,90.36Z" style="fill:#e0e0e0"></path><path d="M310.29,101.61c0,.14-8.2.26-18.31.26s-18.31-.12-18.31-.26,8.2-.26,18.31-.26S310.29,101.47,310.29,101.61Z" style="fill:#e0e0e0"></path><path d="M322.9,116.19c0,.15-8.2.26-18.31.26s-18.32-.11-18.32-.26,8.2-.26,18.32-.26S322.9,116.05,322.9,116.19Z" style="fill:#e0e0e0"></path><path d="M289.46,129.22c0,.15-8.2.26-18.32.26s-18.31-.11-18.31-.26,8.2-.26,18.31-.26S289.46,129.08,289.46,129.22Z" style="fill:#e0e0e0"></path><path d="M330,129.22c0,.15-8.2.26-18.31.26s-18.32-.11-18.32-.26,8.2-.26,18.32-.26S330,129.08,330,129.22Z" style="fill:#e0e0e0"></path><path d="M289.45,133.46c0,.15-8.2.26-18.31.26s-18.31-.11-18.31-.26,8.19-.26,18.31-.26S289.45,133.32,289.45,133.46Z" style="fill:#e0e0e0"></path><path d="M291.23,93.41c0,.15-8.2.26-18.31.26s-18.31-.11-18.31-.26,8.2-.26,18.31-.26S291.23,93.27,291.23,93.41Z" style="fill:#e0e0e0"></path><path d="M281.47,90.4a43,43,0,0,1-9.44,0,43,43,0,0,1,9.44,0Z" style="fill:#e0e0e0"></path><path d="M262.55,112.29a42.88,42.88,0,0,1-9.43,0,42.88,42.88,0,0,1,9.43,0Z" style="fill:#e0e0e0"></path><path d="M262.33,116.19a43,43,0,0,1-9.44,0,43,43,0,0,1,9.44,0Z" style="fill:#e0e0e0"></path><path d="M344.06,76.7c0,.14-22.82.26-51,.26s-51-.12-51-.26,22.82-.26,51-.26S344.06,76.55,344.06,76.7Z" style="fill:#e0e0e0"></path><path d="M250.18,73.25A1.21,1.21,0,1,1,249,72,1.21,1.21,0,0,1,250.18,73.25Z" style="fill:#fff"></path><path d="M255.37,73.25A1.21,1.21,0,1,1,254.16,72,1.21,1.21,0,0,1,255.37,73.25Z" style="fill:#fff"></path><path d="M260.56,73.25A1.21,1.21,0,1,1,259.35,72,1.21,1.21,0,0,1,260.56,73.25Z" style="fill:#fff"></path><rect x="561.58" y="267.55" width="51.12" height="165.46" style="fill:#ebebeb"></rect><rect x="612.7" y="267.58" width="43.4" height="165.4" style="fill:#e0e0e0"></rect><rect x="565.57" y="274.25" width="41.01" height="35.64" style="fill:#e0e0e0"></rect><rect x="565.57" y="313.93" width="41.01" height="35.64" style="fill:#e0e0e0"></rect><rect x="565.57" y="353.61" width="41.01" height="35.64" style="fill:#e0e0e0"></rect><rect x="565.57" y="393.3" width="41.01" height="35.64" style="fill:#e0e0e0"></rect><path d="M586.08,280.83a1.43,1.43,0,1,1-1.43-1.42A1.43,1.43,0,0,1,586.08,280.83Z" style="fill:#fafafa"></path><path d="M586.08,321a1.43,1.43,0,1,1-1.43-1.42A1.43,1.43,0,0,1,586.08,321Z" style="fill:#fafafa"></path><path d="M586.08,361.12a1.43,1.43,0,1,1-1.43-1.43A1.43,1.43,0,0,1,586.08,361.12Z" style="fill:#fafafa"></path><path d="M586.08,401.26a1.43,1.43,0,1,1-1.43-1.42A1.43,1.43,0,0,1,586.08,401.26Z" style="fill:#fafafa"></path><rect x="561.58" y="433.01" width="5.91" height="33.19" style="fill:#e0e0e0"></rect><rect x="606.58" y="433.01" width="5.91" height="33.19" style="fill:#e0e0e0"></rect><rect x="649.55" y="433.01" width="5.91" height="33.19" style="fill:#e0e0e0"></rect><path d="M132.14,456.83c-1.51-1.29-4.89-5.39-2.29-10.16,1-1.74,3-2.61,4.83-3.38a19.86,19.86,0,0,0,5.28-2.72c2.87-2.43,3.66-6.47,5.56-9.71,2.19-3.71,6.27-6.5,10.58-6.3,4.93.22,9,4.23,10.91,8.8s1.93,9.65,2,14.59c0,2.73-.1,5.81-2.12,7.66-1.85,1.7-4.65,1.72-7.17,1.64l-27-.82" style="fill:#f5f5f5"></path><path d="M183.71,383H112.8l12.78,75.81a8.45,8.45,0,0,0,6,6.75l.25.07a6.45,6.45,0,0,0,.63.16A8.58,8.58,0,0,0,134,466v.07l.35-.05h31.6a9,9,0,0,0,1.74-.18,8.5,8.5,0,0,0,7.17-7.41L181,406.19l.28-2.08h0l2.43-20.69Zm-13.38,48.36h-7.27l.73-22h8.43Zm2.6-22h7l-2.6,22H171Zm-20.79,46.39-.44-19.11h10.48l-.64,19.11Zm-11.33-19.11H151l.45,19.11H142.3Zm.79,19.11h-8.54c-.81-5.16-1.87-11.87-3-19.11h10.06Zm-1.2-24.39-1.72-22h11.68l.51,22Zm11.18,0-.51-22h12l-.74,22Zm-.64-27.28-.47-20.38h13.47l-.68,20.38Zm-.7,0h-12l-1.59-20.38h13.09Zm-12.68,0H124.9c-.45-2.81-.88-5.48-1.26-7.87-1.32-8.24-1.82-11.34-2.09-12.51H136Zm.42,5.28,1.71,22H129.22c-.35-2.23-.71-4.49-1.07-6.75-.82-5.19-1.64-10.39-2.41-15.25Zm-9.47,22h-6.85l-3.7-22H125Zm.83,5.28c1,6.61,2.07,13.13,3,19.11h-6.58l-3.22-19.11Zm32.9,19.11.64-19.11h7l-1.64,19.11ZM164,404.11l.68-20.38h9.77l-1.74,20.38Zm-43.09-20.38c.28,1.48,1.57,9.5,3.31,20.38h-7.12l-3.44-20.38Zm53.55,72H169l1.64-19.11h6.09Zm6.09-51.67h-7.14l1.75-20.38h7.79Z" style="fill:#e0e0e0"></path></g></svg>
