<svg xmlns="http://www.w3.org/2000/svg" viewBox="0 0 500 500"><g id="freepik--Floor--inject-33"><path id="freepik--floor--inject-33" d="M90.19,426.19c89.93,43.28,235.75,43.28,325.69,0s89.93-113.44,0-156.72-235.76-43.28-325.69,0S.25,382.91,90.19,426.19Z" style="fill:#f5f5f5"></path></g><g id="freepik--Shadow--inject-33"><path d="M442.36,382c-21.71,10.26-56.85,10.14-78.49-.27s-21.58-27.15.13-37.41,56.85-10.13,78.49.27S464.07,371.72,442.36,382Z" style="fill:#e0e0e0"></path></g><g id="freepik--Clouds--inject-33"><g id="freepik--clouds--inject-33"><path d="M320.51,65.56l6.81,3.93c0-.3-.06-.6-.06-.9v-2c0-3.51,2.47-4.94,5.51-3.18a10.65,10.65,0,0,1,3.28,3.15c.5-4.41,4-6.06,8.17-3.63,4.55,2.63,8.24,9,8.24,14.27v3a7.88,7.88,0,0,1-.69,3.42l5.65,3.26a6.77,6.77,0,0,1,3.06,5.3c0,1.94-1.37,2.73-3.06,1.76L320.51,72.61a6.74,6.74,0,0,1-3.06-5.29C317.45,65.38,318.82,64.59,320.51,65.56Z" style="fill:#ebebeb"></path><path d="M291.35,85.41l5.14,3c0-.23,0-.46,0-.68V86.21c0-2.65,1.86-3.73,4.16-2.4a8,8,0,0,1,2.47,2.38c.38-3.33,3-4.57,6.17-2.74a13.72,13.72,0,0,1,6.22,10.77v2.23a5.8,5.8,0,0,1-.53,2.58l4.27,2.47a5.07,5.07,0,0,1,2.31,4c0,1.47-1,2.07-2.31,1.33L291.35,90.73a5.09,5.09,0,0,1-2.3-4C289.05,85.27,290.08,84.67,291.35,85.41Z" style="fill:#ebebeb"></path></g></g><g id="freepik--Envelope--inject-33"><g id="freepik--Letter--inject-33"><path d="M330.12,236.7a4.29,4.29,0,0,0-1.95-3.37l-99.69-57.56a4.3,4.3,0,0,0-3.89,0l-2.2,1.27a4.29,4.29,0,0,0-1.95,3.38v76.41a4.34,4.34,0,0,0,1.95,3.38l99.69,57.55a4.32,4.32,0,0,0,3.9,0l2.19-1.27a4.33,4.33,0,0,0,1.95-3.37Z" style="fill:#6C63FF"></path><path d="M329.55,234.78,324,238,221,178.5a4,4,0,0,1,1.38-1.46l2.2-1.26a4.24,4.24,0,0,1,3.89,0l99.69,57.55A4,4,0,0,1,329.55,234.78Z" style="fill:#fff;opacity:0.4"></path><path d="M330.12,236.7v76.41a4.29,4.29,0,0,1-1.95,3.38L326,317.76a3.28,3.28,0,0,1-.54.24,4.06,4.06,0,0,1-.8.18,4.68,4.68,0,0,1-1.54-.05l-.38-.1-.23-.09a1.19,1.19,0,0,0,.93,0,1.36,1.36,0,0,0,.6-1.28V240.22a1.71,1.71,0,0,0-1-1.66l1-.59,5.53-3.19A4,4,0,0,1,330.12,236.7Z" style="opacity:0.1"></path><path d="M324,238l-46.16,17.25a7.5,7.5,0,0,1-8.91-2.93l-7.41-11.36-40.89-62.65,39.41,63.08-39.62,15.5a4.08,4.08,0,0,0,.61,1.95l39.12-17.27,8.61,13.78a7.51,7.51,0,0,0,9.4,2.89l6.13-2.71,39.11,62.42a1.36,1.36,0,0,0,.6-1.28v-1.28L284.5,255.42Z" style="opacity:0.2"></path></g></g></svg>