<svg width="512" height="512" xmlns="http://www.w3.org/2000/svg">

 <g>
  <title>background</title>
  <rect fill="none" id="canvas_background" height="402" width="582" y="-1" x="-1"/>
 </g>
 <g>
  <title>Layer 1</title>
  <circle r="256" id="ellipse" fill="#0769AD" cy="256" cx="256"/>
  <path id="svg_2" fill="#FFFFFF" d="m116.300003,174.300003c-28.300003,40.699997 -24.800003,93.699997 -3.200005,136.999985c0.5,1 1.099998,2 1.599998,3.100006c0.300003,0.700012 0.700005,1.300018 1,2c0.200005,0.399994 0.400002,0.700012 0.600006,1.100006c0.399994,0.700012 0.699997,1.299988 1.099998,2c0.699997,1.200012 1.400002,2.399994 2.099998,3.5c0.400002,0.700012 0.800003,1.299988 1.199997,1.899994c0.800003,1.200012 1.600006,2.5 2.400002,3.800018c0.300003,0.5 0.700005,1.099976 1,1.599976c1.099998,1.700012 2.300003,3.300018 3.5,5c0,0 0.099998,0.100006 0.099998,0.100006c0.200005,0.300018 0.400009,0.5 0.600006,0.800018c1,1.399994 2.099991,2.799988 3.199997,4.199982c0.399994,0.5 0.800003,1 1.199997,1.5c1,1.200012 1.900009,2.399994 2.900009,3.600006c0.399994,0.399994 0.699997,0.899994 1.099991,1.299988c1.300003,1.600006 2.699997,3.100006 4.100006,4.700012c0,0 0.099991,0.100006 0.099991,0.100006c0.100006,0.100006 0.100006,0.100006 0.200012,0.199982c1.299988,1.5 2.699997,2.900024 4.099991,4.400024c0.400009,0.5 0.900009,0.899994 1.300003,1.299988c1.100006,1.100006 2.199997,2.200012 3.300003,3.299988c0.5,0.400024 0.899994,0.900024 1.399994,1.300018c1.5,1.399994 3,2.799988 4.5,4.100006c0,0 0,0 0.100006,0c0.300003,0.199982 0.5,0.5 0.800003,0.699982c1.399994,1.200012 2.699997,2.300018 4.099991,3.5c0.600006,0.5 1.100006,0.899994 1.699997,1.399994c1.100006,0.900024 2.300003,1.800018 3.400009,2.700012c0.599991,0.5 1.199997,0.899994 1.800003,1.399994c1.299988,0.899994 2.5,1.899994 3.799988,2.800018c0.5,0.399994 0.900009,0.699982 1.400009,1c0.099991,0.099976 0.300003,0.199982 0.399994,0.299988c1.199997,0.899994 2.5,1.700012 3.800003,2.5c0.5,0.399994 1.100006,0.700012 1.600006,1.100006c1.899994,1.199982 3.899994,2.399994 5.899994,3.600006c0.5,0.299988 1.100006,0.599976 1.600006,0.899994c1.5,0.799988 2.899994,1.600006 4.399994,2.5c0.800003,0.399994 1.600006,0.799988 2.399994,1.199982c1.100006,0.5 2.100006,1.100006 3.100006,1.600006c0.199997,0.100006 0.5,0.200012 0.699997,0.399994c0.400009,0.200012 0.900009,0.400024 1.300003,0.600006c1.600006,0.800018 3.300003,1.600006 5,2.300018c0.399994,0.199982 0.699997,0.299988 1.100006,0.5c1.899994,0.899994 3.899994,1.699982 5.799988,2.399994c0.5,0.199982 0.900009,0.399994 1.400009,0.600006c1.800003,0.699982 3.599991,1.399994 5.5,2c0.199997,0.099976 0.5,0.099976 0.699997,0.199982c2,0.700012 4.100006,1.399994 6.100006,2c0.5,0.100006 1,0.300018 1.5,0.399994c2.099991,0.700012 4.099991,1.400024 6.299988,1.800018c137,25 176.800018,-82.300018 176.800018,-82.300018c-33.400024,43.5 -92.700012,55 -149,42.200012c-2.100006,-0.5 -4.199997,-1.100006 -6.300003,-1.799988c-0.5,-0.100006 -1,-0.300018 -1.600006,-0.5c-2,-0.600006 -4,-1.300018 -6,-2c-0.299988,-0.100006 -0.599991,-0.200012 -0.799988,-0.300018c-1.800003,-0.699982 -3.600006,-1.299988 -5.300003,-2c-0.5,-0.199982 -1,-0.399994 -1.5,-0.600006c-1.900009,-0.799988 -3.900009,-1.599976 -5.800003,-2.399994c-0.399994,-0.199982 -0.800003,-0.299988 -1.100006,-0.5c-1.599991,-0.699982 -3.199997,-1.5 -4.899994,-2.299988c-0.5,-0.200012 -0.899994,-0.399994 -1.399994,-0.700012c-1.200012,-0.600006 -2.5,-1.299988 -3.800003,-1.899994c-0.800003,-0.399994 -1.699997,-0.899994 -2.5,-1.299988c-1.5,-0.800018 -3,-1.600006 -4.5,-2.5c-0.5,-0.300018 -1,-0.5 -1.5,-0.800018c-2,-1.199982 -3.900009,-2.399994 -5.900009,-3.600006c-0.5,-0.299988 -1.099991,-0.699982 -1.599991,-1c-1.400009,-0.899994 -2.800003,-1.799988 -4.199997,-2.799988c-0.5,-0.299988 -0.900009,-0.700012 -1.300003,-0.899994c-1.300003,-0.899994 -2.600006,-1.899994 -3.900009,-2.899994c-0.599991,-0.400024 -1.199997,-0.900024 -1.699997,-1.300018c-1.199997,-0.899994 -2.399994,-1.799988 -3.599991,-2.799988c-0.5,-0.399994 -1.100006,-0.899994 -1.600006,-1.300018c-1.5,-1.199982 -3,-2.5 -4.399994,-3.699982c-0.200012,-0.100006 -0.300003,-0.300018 -0.5,-0.399994c-1.600006,-1.400024 -3.100006,-2.800018 -4.700012,-4.200012c-0.5,-0.399994 -0.899994,-0.799988 -1.299988,-1.200012c-1.100006,-1.099976 -2.300003,-2.199982 -3.300003,-3.299988c-0.400009,-0.399994 -0.900009,-0.899994 -1.300003,-1.299988c-1.399994,-1.400024 -2.800003,-2.900024 -4.100006,-4.400024c-0.099991,-0.099976 -0.099991,-0.099976 -0.199997,-0.199982c-1.399994,-1.600006 -2.800003,-3.100006 -4.199997,-4.700012c-0.399994,-0.399994 -0.699997,-0.899994 -1.100006,-1.299988c-1,-1.200012 -2,-2.5 -3,-3.700012c-0.399994,-0.399994 -0.699997,-0.899994 -1.099991,-1.399994c-1.199997,-1.5 -2.300003,-3.100006 -3.5,-4.600006c-31.200005,-42.599991 -42.400009,-101.299988 -17.5,-149.5"/>
  <path id="svg_3" fill="#FFFFFF" d="m204.300003,139.899994c-20.5,29.5 -19.400009,69 -3.400009,100.099991c2.700012,5.200012 5.700012,10.300003 9.100006,15.100006c3.100006,4.400009 6.5,9.599991 10.5,13.199997c1.5,1.600006 3,3.200012 4.600006,4.799988c0.399994,0.400024 0.799988,0.800018 1.199997,1.200012c1.5,1.5 3.099991,2.899994 4.699997,4.399994c0.100006,0.100006 0.100006,0.100006 0.199997,0.200012c0,0 0,0 0,0c1.800003,1.600006 3.600006,3.100006 5.5,4.5c0.400009,0.299988 0.800003,0.699982 1.199997,1c1.900009,1.399994 3.800003,2.799988 5.700012,4.199982c0.099991,0 0.099991,0.100006 0.199997,0.100006c0.899994,0.600006 1.699997,1.100006 2.599991,1.700012c0.400009,0.299988 0.800003,0.600006 1.200012,0.799988c1.399994,0.899994 2.799988,1.800018 4.199997,2.600006c0.199997,0.100006 0.399994,0.200012 0.599991,0.399994c1.200012,0.700012 2.5,1.399994 3.800018,2.100006c0.399994,0.200012 0.899994,0.5 1.299988,0.700012c0.899994,0.5 1.700012,0.899994 2.600006,1.399994c0.100006,0.100006 0.299988,0.100006 0.399994,0.199982c1.799988,0.900024 3.600006,1.700012 5.5,2.600006c0.399994,0.200012 0.799988,0.300018 1.200012,0.5c1.5,0.600006 3,1.200012 4.5,1.800018c0.599976,0.199982 1.299988,0.5 1.899994,0.699982c1.399994,0.5 2.799988,1 4.100006,1.399994c0.599976,0.200012 1.199982,0.400024 1.899994,0.600006c2,0.600006 3.899994,1.399994 6,1.700012c106,17.5 130.399994,-63.899994 130.399994,-63.899994c-22,31.700012 -64.600006,46.799988 -110.100006,35c-2,-0.5 -4,-1.100006 -6,-1.700012c-0.600006,-0.199982 -1.199982,-0.399994 -1.799988,-0.599976c-1.399994,-0.5 -2.800018,-0.900024 -4.200012,-1.5c-0.600006,-0.200012 -1.299988,-0.5 -1.899994,-0.700012c-1.5,-0.600006 -3,-1.200012 -4.5,-1.799988c-0.399994,-0.200012 -0.799988,-0.300018 -1.200012,-0.5c-1.899994,-0.800018 -3.699982,-1.700012 -5.5,-2.600006c-0.899994,-0.399994 -1.899994,-0.899994 -2.799988,-1.399994c-0.5,-0.300018 -1.100006,-0.600006 -1.600006,-0.800018c-1.199982,-0.600006 -2.299988,-1.299988 -3.5,-2c-0.299988,-0.199982 -0.600006,-0.299988 -0.799988,-0.5c-1.399994,-0.799988 -2.800018,-1.699982 -4.200012,-2.600006c-0.399994,-0.299988 -0.899994,-0.599976 -1.299988,-0.899994c-0.899994,-0.600006 -1.800018,-1.199982 -2.700012,-1.799988c-2,-1.300018 -3.799988,-2.800018 -5.699982,-4.200012c-0.400024,-0.399994 -0.900024,-0.699997 -1.300018,-1c-19.899994,-15.699997 -35.699997,-37.199997 -43.199997,-61.599991c-7.899994,-25.300003 -6.199997,-53.600006 7.5,-76.600006"/>
  <path id="svg_4" fill="#FFFFFF" d="m278.200012,114.300003c-12.100006,17.800003 -13.299988,39.800003 -4.899994,59.5c8.799988,20.899994 26.899994,37.199997 48.100006,44.899994c0.899994,0.300003 1.699982,0.600006 2.599976,0.900009c0.400024,0.099991 0.800018,0.199997 1.200012,0.399994c1.200012,0.399994 2.5,0.800003 3.799988,1.100006c58.400024,11.299988 74.200012,-30 78.5,-36.099991c-13.899994,20 -37.199982,24.799988 -65.799988,17.799988c-2.299988,-0.5 -4.700012,-1.399994 -6.899994,-2.099991c-2.800018,-1 -5.600006,-2.100006 -8.200012,-3.400009c-5.100006,-2.399994 -9.899994,-5.399994 -14.399994,-8.799988c-25.600006,-19.400009 -41.5,-56.5 -24.799988,-86.700005"/>
 </g>
</svg>