<?xml version="1.0" standalone="no"?>
<!DOCTYPE svg PUBLIC "-//W3C//DTD SVG 20010904//EN"
 "http://www.w3.org/TR/2001/REC-SVG-20010904/DTD/svg10.dtd">
<svg version="1.0" xmlns="http://www.w3.org/2000/svg"
 width="300.000000pt" height="121.000000pt" viewBox="0 0 300.000000 121.000000"
 preserveAspectRatio="xMidYMid meet">
<metadata>
Created by potrace 1.10, written by Peter Selinger 2001-2011
</metadata>
<g transform="translate(0.000000,121.000000) scale(0.100000,-0.100000)"
fill="#000000" stroke="none">
<path d="M370 1172 c0 -6 5 -14 10 -17 6 -3 10 -20 10 -37 0 -24 -11 -42 -45
-75 -52 -50 -79 -58 -41 -12 27 31 34 63 16 74 -6 3 -10 -4 -10 -18 0 -16 -15
-39 -45 -66 -24 -22 -47 -41 -49 -41 -2 0 1 13 7 30 9 23 8 33 -1 42 -9 9 -12
7 -12 -13 0 -14 -12 -41 -26 -60 -14 -19 -29 -41 -34 -49 -7 -12 -11 -13 -21
-2 -7 6 -20 12 -28 12 -11 0 -11 -4 4 -20 15 -17 16 -25 6 -68 -9 -35 -9 -56
-1 -77 12 -33 58 -85 74 -85 5 0 -2 12 -16 28 -34 35 -50 76 -42 109 l7 25 12
-29 c15 -35 73 -103 87 -103 6 0 -6 18 -25 39 -48 53 -65 114 -43 155 16 31
17 31 11 4 -6 -34 14 -120 26 -112 5 3 5 13 -1 24 -16 30 -12 82 10 118 25 40
36 42 15 2 -8 -16 -15 -39 -14 -52 1 -21 2 -21 7 -3 4 11 12 27 17 36 11 18
96 81 102 76 2 -2 -12 -20 -30 -39 -92 -97 -92 -202 0 -277 47 -39 61 -40 34
-2 -45 63 -35 127 36 223 19 26 33 56 30 65 -3 16 -5 16 -12 -2 -5 -11 -28
-42 -51 -68 -23 -26 -49 -61 -56 -77 -7 -17 -16 -30 -20 -30 -10 0 -10 -2 7
58 10 32 36 75 71 119 64 78 77 105 69 144 -6 27 -45 72 -45 51z"/>
<path d="M520 1141 c-5 -11 -10 -32 -10 -48 0 -29 9 -43 86 -144 52 -68 81
-149 54 -149 -5 0 -10 6 -10 14 0 8 -21 42 -47 75 -55 70 -90 84 -45 19 65
-95 75 -138 48 -202 -7 -18 -28 -44 -46 -58 -18 -14 -28 -28 -23 -31 5 -3 39
22 74 56 80 77 96 119 74 193 -8 28 -31 69 -51 92 -48 57 -26 53 36 -6 36 -35
50 -43 50 -31 0 10 -4 21 -10 24 -5 3 -10 12 -10 18 1 7 10 1 20 -12 14 -16
20 -38 20 -69 0 -53 16 -47 22 8 l4 35 9 -30 c6 -20 4 -42 -7 -72 -18 -49 -7
-59 14 -13 7 17 17 30 22 30 13 0 0 -78 -19 -106 -19 -30 -75 -66 -92 -59 -7
2 -15 0 -18 -5 -11 -18 29 -10 70 13 22 12 50 38 63 57 20 30 22 41 16 101 -4
45 -3 69 5 73 22 14 10 25 -14 14 -14 -6 -27 -9 -29 -7 -2 2 -18 26 -34 53
-24 38 -29 53 -21 67 12 23 -3 25 -21 4 -10 -12 -10 -21 -2 -40 7 -14 8 -25 4
-25 -14 0 -75 69 -88 98 l-12 27 -1 -25 c-1 -14 6 -36 15 -48 24 -34 11 -37
-26 -5 -38 31 -64 86 -55 114 8 25 -1 25 -15 0z"/>
<path d="M435 841 c-2 -5 6 -12 20 -15 31 -8 33 -26 3 -26 -18 0 -20 -2 -9 -9
11 -7 8 -17 -17 -49 -45 -56 -69 -132 -43 -132 5 0 7 10 3 22 -3 14 -1 19 6
14 8 -5 10 -2 6 8 -4 10 12 40 41 78 29 38 45 69 42 80 -6 21 6 24 21 5 8 -10
5 -23 -13 -53 -28 -45 -33 -87 -10 -78 8 4 12 10 9 16 -8 13 16 69 27 62 5 -3
6 3 2 13 -5 15 -3 16 8 6 19 -18 34 -16 19 2 -10 12 -10 15 1 15 22 0 -43 36
-78 43 -18 3 -35 2 -38 -2z"/>
<path d="M46 829 c7 -8 15 -29 19 -48 5 -22 30 -58 72 -103 40 -42 63 -75 59
-84 -3 -7 -1 -14 4 -14 5 0 12 11 16 25 7 30 15 31 44 7 14 -12 23 -30 24 -50
1 -41 13 -41 24 0 l8 33 27 -27 c42 -42 36 -71 -33 -142 -70 -73 -81 -106 -14
-40 26 24 48 43 50 41 2 -2 -3 -18 -12 -36 -23 -47 -13 -101 31 -166 27 -39
36 -61 33 -79 -3 -14 -1 -26 3 -26 22 0 6 68 -26 120 -44 69 -44 98 1 189 22
45 34 81 30 94 -5 21 -5 21 9 3 16 -21 12 -52 -12 -99 -23 -45 -27 -119 -9
-142 14 -19 15 -18 6 15 -8 26 -6 47 6 82 8 27 17 48 20 48 2 0 13 -19 25 -42
25 -48 26 -92 4 -145 -21 -50 -19 -126 4 -172 24 -45 46 -67 56 -51 4 6 1 9
-6 8 -6 -2 -14 3 -17 11 -3 9 0 11 8 6 9 -6 9 -3 1 14 -14 25 -23 28 -14 4 4
-13 3 -15 -5 -8 -6 6 -16 31 -23 57 -12 43 -11 54 16 132 l28 86 -27 51 c-17
33 -26 67 -26 97 -1 75 -25 96 -185 157 -115 43 -176 95 -191 161 -5 20 -16
40 -24 42 -12 4 -13 2 -4 -9z"/>
<path d="M852 803 c-3 -39 -49 -101 -96 -128 -23 -13 -81 -38 -130 -56 -97
-36 -156 -81 -156 -120 0 -13 11 -45 25 -72 27 -49 35 -105 22 -147 -7 -22 -6
-22 9 4 19 34 15 78 -13 155 -19 50 -20 91 -3 91 5 0 6 -8 4 -17 -3 -10 11
-49 31 -88 19 -38 35 -84 35 -101 0 -17 -15 -55 -33 -86 -42 -68 -49 -94 -31
-109 11 -9 16 -6 24 16 14 38 11 45 -5 10 -14 -30 -14 -30 -15 -4 0 15 17 48
41 80 37 49 40 58 37 104 -3 28 -8 59 -13 70 -12 29 63 -43 82 -78 8 -16 12
-34 10 -41 -3 -7 1 -13 8 -13 11 0 11 8 0 44 -9 29 -33 65 -69 103 -46 48 -56
65 -56 94 0 33 20 66 41 66 5 0 9 -8 9 -18 0 -18 18 -42 32 -42 4 0 3 12 -2
26 -9 22 -6 30 19 55 31 30 57 39 48 15 -3 -8 1 -22 8 -33 13 -17 14 -16 15 9
0 18 15 40 50 74 49 47 90 114 90 147 0 28 -15 19 -18 -10z"/>
<path d="M1635 769 c-64 -18 -95 -67 -95 -147 0 -110 98 -173 196 -126 39 19
74 82 74 135 0 95 -88 164 -175 138z m78 -40 c34 -15 52 -54 51 -106 -1 -61
-30 -97 -79 -101 -75 -6 -112 39 -102 125 8 76 65 112 130 82z"/>
<path d="M1003 628 c2 -140 2 -143 25 -146 21 -3 22 0 22 57 l0 61 59 0 c80 0
111 24 111 85 0 67 -29 85 -136 85 l-83 0 2 -142z m167 88 c32 -40 -12 -86
-82 -86 l-38 0 0 50 0 50 54 0 c34 0 58 -5 66 -14z"/>
<path d="M1270 635 c0 -74 0 -138 0 -142 -1 -5 8 -9 20 -11 19 -3 20 2 20 67
l0 71 70 0 69 0 3 -67 c2 -55 6 -68 21 -71 16 -3 17 9 17 142 0 139 -1 146
-20 146 -18 0 -20 -7 -20 -57 l0 -58 -70 0 -70 0 0 58 c0 50 -2 57 -20 57 -19
0 -20 -7 -20 -135z"/>
<path d="M1852 628 l3 -141 105 -1 c91 0 105 2 108 17 3 15 -7 17 -87 17 l-91
0 0 48 0 47 80 -3 c75 -3 80 -2 80 17 0 20 -6 21 -80 21 l-80 0 0 43 0 42 85
-3 c80 -3 85 -2 85 17 0 20 -5 21 -105 21 l-106 0 3 -142z"/>
<path d="M2112 628 c3 -129 5 -143 21 -146 17 -3 18 5 15 111 -2 64 -2 114 0
112 2 -2 36 -52 76 -112 50 -76 78 -109 94 -111 22 -3 22 -3 22 142 0 139 -1
146 -20 146 -19 0 -20 -7 -20 -112 l0 -112 -72 112 c-58 89 -78 112 -96 112
-23 0 -23 0 -20 -142z m198 -98 c0 -5 -2 -10 -4 -10 -3 0 -8 5 -11 10 -3 6 -1
10 4 10 6 0 11 -4 11 -10z"/>
<path d="M2402 628 c3 -127 5 -143 21 -146 16 -3 17 9 17 142 0 140 -1 146
-20 146 -20 0 -20 -5 -18 -142z"/>
<path d="M2496 758 c4 -7 25 -39 47 -70 l39 -56 -51 -68 c-28 -37 -51 -70 -51
-73 0 -4 9 -7 20 -8 14 -1 33 16 62 58 34 48 45 57 53 46 5 -8 25 -35 42 -61
21 -29 40 -46 53 -46 28 0 26 8 -23 75 -24 33 -46 65 -50 72 -5 8 13 38 44 78
49 62 50 65 26 65 -19 0 -35 -13 -62 -50 -20 -27 -38 -50 -39 -50 -2 0 -18 22
-37 50 -24 36 -41 50 -57 50 -16 0 -21 -4 -16 -12z"/>
<path d="M685 731 c-6 -11 9 -23 19 -14 9 9 7 23 -3 23 -6 0 -12 -4 -16 -9z"/>
<path d="M245 670 c-3 -5 1 -10 10 -10 9 0 13 5 10 10 -3 6 -8 10 -10 10 -2 0
-7 -4 -10 -10z"/>
</g>
</svg>
