<svg xmlns="http://www.w3.org/2000/svg" viewBox="0 0 500 500"><g id="freepik--Floor--inject-33"><path id="freepik--floor--inject-33" d="M90.19,426.19c89.93,43.28,235.75,43.28,325.69,0s89.93-113.44,0-156.72-235.76-43.28-325.69,0S.25,382.91,90.19,426.19Z" style="fill:#f5f5f5"></path></g><g id="freepik--Shadow--inject-33"><path d="M442.36,382c-21.71,10.26-56.85,10.14-78.49-.27s-21.58-27.15.13-37.41,56.85-10.13,78.49.27S464.07,371.72,442.36,382Z" style="fill:#e0e0e0"></path></g><g id="freepik--Clouds--inject-33"><g id="freepik--clouds--inject-33"><path d="M320.51,65.56l6.81,3.93c0-.3-.06-.6-.06-.9v-2c0-3.51,2.47-4.94,5.51-3.18a10.65,10.65,0,0,1,3.28,3.15c.5-4.41,4-6.06,8.17-3.63,4.55,2.63,8.24,9,8.24,14.27v3a7.88,7.88,0,0,1-.69,3.42l5.65,3.26a6.77,6.77,0,0,1,3.06,5.3c0,1.94-1.37,2.73-3.06,1.76L320.51,72.61a6.74,6.74,0,0,1-3.06-5.29C317.45,65.38,318.82,64.59,320.51,65.56Z" style="fill:#ebebeb"></path><path d="M291.35,85.41l5.14,3c0-.23,0-.46,0-.68V86.21c0-2.65,1.86-3.73,4.16-2.4a8,8,0,0,1,2.47,2.38c.38-3.33,3-4.57,6.17-2.74a13.72,13.72,0,0,1,6.22,10.77v2.23a5.8,5.8,0,0,1-.53,2.58l4.27,2.47a5.07,5.07,0,0,1,2.31,4c0,1.47-1,2.07-2.31,1.33L291.35,90.73a5.09,5.09,0,0,1-2.3-4C289.05,85.27,290.08,84.67,291.35,85.41Z" style="fill:#ebebeb"></path></g></g><g id="freepik--Mailbox--inject-33"><g id="freepik--mailbox--inject-33"><path d="M87.75,361.72v-7.37h1.82c2.12-4.3,6.08-8.35,11.93-11.72,18.35-10.6,48.1-10.6,66.45,0,5.86,3.37,9.82,7.42,11.94,11.72h1.8v7.13c.15,7-4.42,14.13-13.74,19.51-18.35,10.59-48.1,10.59-66.45,0C92.29,375.67,87.71,368.69,87.75,361.72Z" style="fill:#263238"></path><path d="M168,335.16c-18.35-10.59-48.1-10.59-66.45,0s-18.35,27.77,0,38.37,48.1,10.59,66.45,0S186.3,345.76,168,335.16Z" style="fill:#455a64"></path><path d="M146.83,222.08v129c0,1.78-1.18,3.57-3.54,4.93-4.72,2.73-12.38,2.73-17.1,0-2.36-1.36-3.54-3.15-3.54-4.93v-129Z" style="fill:#37474f"></path><polygon points="122.64 252.58 122.64 261.32 146.83 275.26 146.83 266.58 122.64 252.58" style="fill:#263238"></polygon><path d="M260.32,138.69h0l-2.06,4.13-22.15,44.4L225.6,208.32,190,279.66l-3.92,7.86q-.35,0-.69,0a8.1,8.1,0,0,1-4-1l-141.8-82a8.83,8.83,0,0,1-4-6.91V136.51c0-30.55,20.11-66.92,44.94-81.26C92.34,48.46,103,47.91,111,52.4l0-.06Z" style="fill:#455a64"></path><path d="M230.37,141.92c-10,3.71-46.48,33.82-46.48,81.23,0,39.86.05,60.55.06,64.27a8.93,8.93,0,0,0,1.47.13q.35,0,.69,0l3.92-7.86,35.57-71.34,10.51-21.09,2.41-4.83Z" style="fill:#37474f"></path><path d="M273.36,237.45s0,0,0,0a5,5,0,0,1-1.65,1.6l-.41.26-81.88,47.27a7.74,7.74,0,0,1-3.3.93q-.35,0-.69,0v-64.4c0-11,2.62-22.72,7.12-33.93l4,2.34,29,16.76,45.07,26,2.31,1.33A1.18,1.18,0,0,1,273.36,237.45Z" style="fill:#37474f"></path><path d="M260.32,138.7c-7.94-4.17-18.44-3.44-29.95,3.22-12.91,7.43-24.56,20.87-32.74,36.33a112.31,112.31,0,0,0-5.09,11c-4.5,11.21-7.12,22.94-7.12,33.93v64.4q.35,0,.69,0a7.74,7.74,0,0,0,3.3-.93l81.88-47.27.41-.26a7.78,7.78,0,0,0,1.65-1.6s0,0,0,0a8.63,8.63,0,0,0,1.92-5V171.27C275.28,154.9,269.5,143.52,260.32,138.7ZM269.48,235l-78.25,45.18c-.66.38-1.2.07-1.2-.69V223.15c0-9.83,2.27-20.73,6.55-31.59a6.62,6.62,0,0,1,.24-.62,107.09,107.09,0,0,1,5.45-11.61c7.95-14.69,18.82-26.76,30.41-33.42,5.95-3.45,11.59-5.19,16.75-5.19a18.61,18.61,0,0,1,8.83,2.11c7.83,4.17,12.41,14.3,12.41,28.44V233A2.64,2.64,0,0,1,269.48,235Z" style="fill:#455a64"></path><path d="M351.15,304.77v-5.63h-.53v.8a24.68,24.68,0,0,0-1.47-4.56c-3-6.9-9.19-13.52-18.71-19l-52.95-30.57a8.83,8.83,0,0,0-8,0l-81,46.74a11.65,11.65,0,0,1-2.57-2.84v5.68h0a2.81,2.81,0,0,0,1.65,2.31l53,30.56c14.17,8.19,32.7,12.21,50.65,12,15.53-.2,30.63-3.6,42.14-10.25,11.9-6.84,17.77-15.92,17.77-25.19Z" style="fill:#263238"></path><path d="M349.15,295.38c-3-6.9-9.19-13.52-18.71-19l-52.95-30.57a8.83,8.83,0,0,0-8,0l-81,46.74,52,30c14.17,8.19,32.7,12.21,50.65,12,15.53-.21,30.63-3.6,42.14-10.25,10.68-6.15,16.52-14.09,17.59-22.36A23.41,23.41,0,0,0,349.15,295.38Z" style="fill:#455a64"></path><path d="M351,301.93a23.41,23.41,0,0,0-1.81-6.55c-3-6.9-9.19-13.52-18.71-19l-52.95-30.57a8.83,8.83,0,0,0-8,0l-81,46.74-.92-.52c-2.2-1.28-2.2-3.34,0-4.61l81.88-47.28a8.83,8.83,0,0,1,8,0l52.95,30.57c9.52,5.5,15.75,12.12,18.71,19a24.09,24.09,0,0,1,1.87,7A22,22,0,0,1,351,301.93Z" style="fill:#37474f"></path><path d="M270.67,171.27v63.08l-74.09-42.79a6.62,6.62,0,0,1,.24-.62c7.94-19.85,21.34-36.68,35.86-45,5.95-3.45,11.59-5.19,16.75-5.19C262.53,140.72,270.67,152.42,270.67,171.27Z" style="fill:#263238"></path><path d="M137.27,219.64l6.52-3.76h0l.05,0h0c2.23-1.26,5.3-1.07,8.69.89,6.82,3.94,12.35,13.52,12.35,21.4,0,3.93-1.38,6.7-3.6,8h0l-6.06,3.47-1.1-1.83a12.53,12.53,0,0,1-3.54-1.38c-6.82-3.94-12.36-13.52-12.36-21.4a13.18,13.18,0,0,1,.39-3.15Z" style="fill:#e0e0e0"></path><path d="M146.26,220.35c6.82,3.94,12.36,13.52,12.36,21.4s-5.54,11.07-12.36,7.13-12.36-13.52-12.36-21.4S139.43,216.41,146.26,220.35Z" style="fill:#fafafa"></path><path d="M146.26,238a3.58,3.58,0,0,1-3.58-3.58V133.14a3.58,3.58,0,0,1,7.16,0V234.43A3.58,3.58,0,0,1,146.26,238Z" style="fill:#ebebeb"></path><polygon points="142.68 143.15 106.78 122.43 118.02 144.04 106.78 152.69 142.68 173.41 142.68 143.15" style="fill:#6C63FF"></polygon></g></g></svg>