<svg xmlns="http://www.w3.org/2000/svg" viewBox="0 0 750 500"><g id="freepik--Screens--inject-19"><polygon points="396.18 249.88 285.28 249.88 293.48 170.88 405.32 170.88 396.18 249.88" style="fill:#263238"></polygon><polygon points="390.54 249.88 279.63 249.88 287.83 170.88 399.67 170.88 390.54 249.88" style="fill:#455a64"></polygon><polygon points="386.42 246.3 283.51 246.3 291.12 173 394.9 173 386.42 246.3" style="fill:#f5f5f5"></polygon><path d="M294.67,234.08c-.15,0,.87-11.05,2.28-24.63s2.65-24.6,2.79-24.58-.87,11-2.28,24.63S294.81,234.09,294.67,234.08Z" style="fill:#263238"></path><path d="M313.4,187.32a51.43,51.43,0,0,1-10.33,0,51.43,51.43,0,0,1,10.33,0Z" style="fill:#263238"></path><path d="M357.36,187.32c0,.14-9.21.26-20.58.26s-20.57-.12-20.57-.26,9.21-.26,20.57-.26S357.36,187.18,357.36,187.32Z" style="fill:#6C63FF"></path><path d="M312.19,213.37a51.53,51.53,0,0,1-10.34,0,51.53,51.53,0,0,1,10.34,0Z" style="fill:#263238"></path><path d="M356.14,213.37c0,.15-9.21.26-20.57.26s-20.58-.11-20.58-.26,9.21-.26,20.58-.26S356.14,213.23,356.14,213.37Z" style="fill:#6C63FF"></path><path d="M342.12,225.38c0,.14-9.21.26-20.57.26s-20.58-.12-20.58-.26,9.21-.26,20.58-.26S342.12,225.24,342.12,225.38Z" style="fill:#6C63FF"></path><path d="M318,194.67a49.09,49.09,0,0,1-7.27.27,49.09,49.09,0,0,1-7.27-.27,51.75,51.75,0,0,1,7.27-.26A51.75,51.75,0,0,1,318,194.67Z" style="fill:#6C63FF"></path><path d="M317.59,205.46a51.75,51.75,0,0,1-7.27.26,51.75,51.75,0,0,1-7.27-.26,50,50,0,0,1,7.27-.26A50,50,0,0,1,317.59,205.46Z" style="fill:#6C63FF"></path><path d="M329.88,220.87a51.75,51.75,0,0,1-7.27.26,51.63,51.63,0,0,1-7.27-.26,49.88,49.88,0,0,1,7.27-.26A50,50,0,0,1,329.88,220.87Z" style="fill:#6C63FF"></path><path d="M370.83,194.67c0,.15-8.31.27-18.56.27s-18.57-.12-18.57-.27,8.31-.26,18.57-.26S370.83,194.53,370.83,194.67Z" style="fill:#263238"></path><path d="M359.37,206.08c0,.15-8.31.26-18.56.26s-18.57-.11-18.57-.26,8.31-.26,18.57-.26S359.37,205.94,359.37,206.08Z" style="fill:#263238"></path><path d="M372.15,220.87c0,.14-8.31.26-18.56.26S335,221,335,220.87s8.31-.26,18.57-.26S372.15,220.72,372.15,220.87Z" style="fill:#263238"></path><path d="M338.25,234.08c0,.14-8.32.26-18.57.26s-18.57-.12-18.57-.26,8.32-.26,18.57-.26S338.25,233.93,338.25,234.08Z" style="fill:#263238"></path><path d="M379.31,234.08c0,.14-8.31.26-18.56.26s-18.57-.12-18.57-.26,8.31-.26,18.57-.26S379.31,233.93,379.31,234.08Z" style="fill:#263238"></path><path d="M338.24,238.37c0,.15-8.31.26-18.56.26s-18.57-.11-18.57-.26,8.31-.26,18.57-.26S338.24,238.23,338.24,238.37Z" style="fill:#263238"></path><path d="M340.05,197.77c0,.14-8.31.26-18.56.26s-18.57-.12-18.57-.26,8.31-.26,18.57-.26S340.05,197.63,340.05,197.77Z" style="fill:#263238"></path><path d="M330.15,194.72a44.16,44.16,0,0,1-9.57,0,42.54,42.54,0,0,1,9.57,0Z" style="fill:#455a64"></path><path d="M311,216.91a44.07,44.07,0,0,1-9.56,0,44.07,44.07,0,0,1,9.56,0Z" style="fill:#455a64"></path><path d="M310.74,220.87a44.07,44.07,0,0,1-9.56,0,44.07,44.07,0,0,1,9.56,0Z" style="fill:#455a64"></path><path d="M393.61,180.83c0,.14-23.14.26-51.69.26s-51.69-.12-51.69-.26,23.14-.27,51.69-.27S393.61,180.68,393.61,180.83Z" style="fill:#263238"></path><path d="M298.43,177.33a1.23,1.23,0,1,1-1.22-1.23A1.22,1.22,0,0,1,298.43,177.33Z" style="fill:#fff"></path><path d="M303.69,177.33a1.23,1.23,0,1,1-1.22-1.23A1.22,1.22,0,0,1,303.69,177.33Z" style="fill:#fff"></path><path d="M309,177.33a1.23,1.23,0,1,1-1.22-1.23A1.22,1.22,0,0,1,309,177.33Z" style="fill:#fff"></path><polygon points="541.87 252.28 425.21 252.28 433.83 169.17 551.49 169.17 541.87 252.28" style="fill:#263238"></polygon><polygon points="535.93 252.28 419.27 252.28 427.9 169.17 545.55 169.17 535.93 252.28" style="fill:#455a64"></polygon><polygon points="531.61 248.51 423.36 248.51 431.36 171.4 540.53 171.4 531.61 248.51" style="fill:#ebebeb"></polygon><path d="M435.15,234.49c-.14,0,.94-11.62,2.41-25.91s2.79-25.87,2.93-25.85-.94,11.61-2.41,25.91S435.29,234.5,435.15,234.49Z" style="fill:#263238"></path><path d="M454.86,185.31a56.94,56.94,0,0,1-10.87,0,54.84,54.84,0,0,1,10.87,0Z" style="fill:#263238"></path><path d="M501.1,185.31c0,.14-9.69.26-21.65.26s-21.64-.12-21.64-.26,9.69-.27,21.64-.27S501.1,185.16,501.1,185.31Z" style="fill:#6C63FF"></path><path d="M453.58,212.71a56.94,56.94,0,0,1-10.87,0,56.94,56.94,0,0,1,10.87,0Z" style="fill:#263238"></path><path d="M499.82,212.71c0,.14-9.7.26-21.65.26s-21.64-.12-21.64-.26,9.69-.26,21.64-.26S499.82,212.57,499.82,212.71Z" style="fill:#6C63FF"></path><path d="M485.07,225.34c0,.15-9.69.26-21.64.26s-21.65-.11-21.65-.26,9.69-.26,21.65-.26S485.07,225.2,485.07,225.34Z" style="fill:#6C63FF"></path><path d="M459.65,193a112.53,112.53,0,0,1-15.29,0,112.53,112.53,0,0,1,15.29,0Z" style="fill:#6C63FF"></path><path d="M459.26,204.38a108.37,108.37,0,0,1-15.29,0,112.53,112.53,0,0,1,15.29,0Z" style="fill:#6C63FF"></path><path d="M472.19,220.6a112.53,112.53,0,0,1-15.29,0,112.53,112.53,0,0,1,15.29,0Z" style="fill:#6C63FF"></path><path d="M515.27,193c0,.15-8.74.26-19.53.26s-19.53-.11-19.53-.26,8.74-.26,19.53-.26S515.27,192.9,515.27,193Z" style="fill:#263238"></path><path d="M503.22,205c0,.15-8.75.26-19.53.26s-19.53-.11-19.53-.26,8.74-.26,19.53-.26S503.22,204.9,503.22,205Z" style="fill:#263238"></path><path d="M516.66,220.6c0,.14-8.75.26-19.53.26s-19.53-.12-19.53-.26,8.74-.26,19.53-.26S516.66,220.45,516.66,220.6Z" style="fill:#263238"></path><path d="M481,234.49c0,.14-8.74.26-19.53.26s-19.53-.12-19.53-.26,8.75-.26,19.53-.26S481,234.35,481,234.49Z" style="fill:#263238"></path><path d="M524.19,234.49c0,.14-8.75.26-19.53.26s-19.53-.12-19.53-.26,8.74-.26,19.53-.26S524.19,234.35,524.19,234.49Z" style="fill:#263238"></path><path d="M481,239c0,.14-8.74.26-19.53.26s-19.53-.12-19.53-.26,8.74-.26,19.53-.26S481,238.87,481,239Z" style="fill:#263238"></path><path d="M482.89,196.3c0,.14-8.74.26-19.53.26s-19.53-.12-19.53-.26,8.74-.26,19.53-.26S482.89,196.16,482.89,196.3Z" style="fill:#263238"></path><path d="M472.47,193.08a48.79,48.79,0,0,1-10.06,0,48.79,48.79,0,0,1,10.06,0Z" style="fill:#455a64"></path><path d="M452.3,216.43a48.79,48.79,0,0,1-10.06,0,48.79,48.79,0,0,1,10.06,0Z" style="fill:#455a64"></path><path d="M452.06,220.6a48.79,48.79,0,0,1-10.06,0,48.79,48.79,0,0,1,10.06,0Z" style="fill:#455a64"></path><path d="M539.23,178.47c0,.15-24.34.26-54.37.26s-54.37-.11-54.37-.26,24.34-.26,54.37-.26S539.23,178.33,539.23,178.47Z" style="fill:#263238"></path><path d="M439.11,174.8a1.29,1.29,0,1,1-1.29-1.29A1.28,1.28,0,0,1,439.11,174.8Z" style="fill:#fff"></path><path d="M444.64,174.8a1.29,1.29,0,1,1-1.29-1.29A1.28,1.28,0,0,1,444.64,174.8Z" style="fill:#fff"></path><path d="M450.18,174.8a1.29,1.29,0,1,1-1.29-1.29A1.28,1.28,0,0,1,450.18,174.8Z" style="fill:#fff"></path><polygon points="475.31 153.9 363.9 153.9 372.14 74.54 484.49 74.54 475.31 153.9" style="fill:#263238"></polygon><polygon points="469.64 153.9 358.23 153.9 366.47 74.54 478.82 74.54 469.64 153.9" style="fill:#455a64"></polygon><polygon points="465.5 150.31 362.13 150.31 369.77 76.67 474.02 76.67 465.5 150.31" style="fill:#fafafa"></polygon><path d="M373.49,138c-.14,0,.89-11.1,2.3-24.74s2.66-24.71,2.81-24.69-.89,11.09-2.3,24.74S373.64,138,373.49,138Z" style="fill:#263238"></path><path d="M392.32,91a51.93,51.93,0,0,1-10.38,0,51.93,51.93,0,0,1,10.38,0Z" style="fill:#263238"></path><path d="M436.47,91c0,.14-9.25.26-20.67.26s-20.67-.12-20.67-.26,9.25-.26,20.67-.26S436.47,90.83,436.47,91Z" style="fill:#6C63FF"></path><path d="M391.09,117.15a51.93,51.93,0,0,1-10.38,0,51.93,51.93,0,0,1,10.38,0Z" style="fill:#263238"></path><path d="M435.25,117.15c0,.14-9.26.26-20.67.26s-20.67-.12-20.67-.26,9.25-.26,20.67-.26S435.25,117,435.25,117.15Z" style="fill:#6C63FF"></path><path d="M421.17,129.21c0,.14-9.26.26-20.67.26s-20.67-.12-20.67-.26,9.25-.26,20.67-.26S421.17,129.07,421.17,129.21Z" style="fill:#6C63FF"></path><path d="M396.89,98.37a102.61,102.61,0,0,1-14.6,0,102.61,102.61,0,0,1,14.6,0Z" style="fill:#6C63FF"></path><path d="M396.52,109.2a102.61,102.61,0,0,1-14.6,0,102.61,102.61,0,0,1,14.6,0Z" style="fill:#6C63FF"></path><path d="M408.86,124.68a102.61,102.61,0,0,1-14.6,0,102.61,102.61,0,0,1,14.6,0Z" style="fill:#6C63FF"></path><path d="M450,98.37c0,.14-8.35.26-18.65.26s-18.65-.12-18.65-.26,8.34-.26,18.65-.26S450,98.22,450,98.37Z" style="fill:#263238"></path><path d="M438.49,109.83c0,.14-8.35.26-18.65.26s-18.65-.12-18.65-.26,8.35-.26,18.65-.26S438.49,109.68,438.49,109.83Z" style="fill:#263238"></path><path d="M451.33,124.68c0,.14-8.35.26-18.65.26s-18.65-.12-18.65-.26,8.35-.26,18.65-.26S451.33,124.53,451.33,124.68Z" style="fill:#263238"></path><path d="M417.27,138c0,.14-8.35.26-18.65.26S380,138.09,380,138s8.35-.26,18.65-.26S417.27,137.8,417.27,138Z" style="fill:#263238"></path><path d="M458.52,138c0,.14-8.35.26-18.65.26s-18.65-.12-18.65-.26,8.35-.26,18.65-.26S458.52,137.8,458.52,138Z" style="fill:#263238"></path><path d="M417.27,142.26c0,.15-8.35.26-18.65.26s-18.65-.11-18.65-.26,8.35-.26,18.65-.26S417.27,142.12,417.27,142.26Z" style="fill:#263238"></path><path d="M419.08,101.48c0,.14-8.35.26-18.65.26s-18.65-.12-18.65-.26,8.35-.26,18.65-.26S419.08,101.33,419.08,101.48Z" style="fill:#263238"></path><path d="M409.14,98.41a44.53,44.53,0,0,1-9.61,0,44.53,44.53,0,0,1,9.61,0Z" style="fill:#455a64"></path><path d="M389.87,120.7a44.53,44.53,0,0,1-9.61,0,44.53,44.53,0,0,1,9.61,0Z" style="fill:#455a64"></path><path d="M389.65,124.68a44.53,44.53,0,0,1-9.61,0,44.53,44.53,0,0,1,9.61,0Z" style="fill:#455a64"></path><path d="M472.88,84.45c0,.15-23.24.27-51.91.27S369,84.6,369,84.45s23.24-.26,51.93-.26S472.88,84.31,472.88,84.45Z" style="fill:#263238"></path><circle cx="376.05" cy="80.94" r="1.23" style="fill:#fff"></circle><circle cx="381.33" cy="80.94" r="1.23" style="fill:#fff"></circle><circle cx="386.61" cy="80.94" r="1.23" style="fill:#fff"></circle></g></svg>
