<svg xmlns="http://www.w3.org/2000/svg" viewBox="0 0 500 500"><g id="freepik--Floor--inject-33"><path id="freepik--floor--inject-33" d="M90.19,426.19c89.93,43.28,235.75,43.28,325.69,0s89.93-113.44,0-156.72-235.76-43.28-325.69,0S.25,382.91,90.19,426.19Z" style="fill:#f5f5f5"></path></g><g id="freepik--Shadow--inject-33"><path d="M442.36,382c-21.71,10.26-56.85,10.14-78.49-.27s-21.58-27.15.13-37.41,56.85-10.13,78.49.27S464.07,371.72,442.36,382Z" style="fill:#e0e0e0"></path></g><g id="freepik--Clouds--inject-33"><g id="freepik--clouds--inject-33"><path d="M320.51,65.56l6.81,3.93c0-.3-.06-.6-.06-.9v-2c0-3.51,2.47-4.94,5.51-3.18a10.65,10.65,0,0,1,3.28,3.15c.5-4.41,4-6.06,8.17-3.63,4.55,2.63,8.24,9,8.24,14.27v3a7.88,7.88,0,0,1-.69,3.42l5.65,3.26a6.77,6.77,0,0,1,3.06,5.3c0,1.94-1.37,2.73-3.06,1.76L320.51,72.61a6.74,6.74,0,0,1-3.06-5.29C317.45,65.38,318.82,64.59,320.51,65.56Z" style="fill:#ebebeb"></path><path d="M291.35,85.41l5.14,3c0-.23,0-.46,0-.68V86.21c0-2.65,1.86-3.73,4.16-2.4a8,8,0,0,1,2.47,2.38c.38-3.33,3-4.57,6.17-2.74a13.72,13.72,0,0,1,6.22,10.77v2.23a5.8,5.8,0,0,1-.53,2.58l4.27,2.47a5.07,5.07,0,0,1,2.31,4c0,1.47-1,2.07-2.31,1.33L291.35,90.73a5.09,5.09,0,0,1-2.3-4C289.05,85.27,290.08,84.67,291.35,85.41Z" style="fill:#ebebeb"></path></g></g><g id="freepik--Plants--inject-33"><g id="freepik--plants--inject-33"><path d="M108.6,338.2l6.62-3.78s3.18-17.52.81-32.58c-3.35-21.18-17.76-28.48-23-26.38s-6.47,8.38,3,20.62C101.6,303.29,108.77,318.55,108.6,338.2Z" style="fill:#6C63FF"></path><g style="opacity:0.1"><path d="M108.6,338.2l6.62-3.78s3.18-17.52.81-32.58c-3.35-21.18-17.76-28.48-23-26.38s-6.47,8.38,3,20.62C101.6,303.29,108.77,318.55,108.6,338.2Z"></path></g><path d="M111,329.79h-.07a.47.47,0,0,1-.4-.53c2.74-19.83-5.23-41.54-14.19-50.3a.47.47,0,1,1,.66-.67c9.12,8.91,17.25,31,14.47,51.1A.48.48,0,0,1,111,329.79Z" style="fill:#fff"></path><path d="M90.21,348.83c-1,.6-3.21-.72-4-1.27a10,10,0,0,1-3.32-3.82,9.3,9.3,0,0,1-.83-5.62,20.32,20.32,0,0,1,.71-3c.28-1,.55-1.94.83-2.91a7.35,7.35,0,0,0,.43-2.93c-.26-2-2-3.37-3.62-4.57-1.77-1.33-3.62-3.08-3.61-5.47a8.46,8.46,0,0,1,2.11-5c1.14-1.44,2.5-2.72,3.53-4.25a5.89,5.89,0,0,0,1.2-3.72,6.11,6.11,0,0,0-.8-2.32,32.87,32.87,0,0,1-2.55-4.65c-.58-1.67-.49-3.75.81-4.95a5.46,5.46,0,0,1,4.11-1A9.3,9.3,0,0,1,89,294.67c3.8,2.11,6,6.61,10,8.23a39.76,39.76,0,0,0,4.87,1.19,6,6,0,0,1,4,2.76c1.48,2.95-1.26,6.59-.22,9.72.92,2.78,3.61,3.84,5.13,6.34a5.9,5.9,0,0,1,.7,3.63,17.24,17.24,0,0,1-1.53,6.13,42.74,42.74,0,0,1-3.36,5.53C108.53,338.26,90.37,348.73,90.21,348.83Z" style="fill:#6C63FF"></path><path d="M101,343.09h0a.47.47,0,0,1-.46-.49c.78-18.76-8.06-39.47-14.49-45.49a.47.47,0,1,1,.65-.69c6.56,6.14,15.58,27.19,14.79,46.22A.47.47,0,0,1,101,343.09Z" style="fill:#fff"></path><path d="M98.15,320.93l-.14,0a62.91,62.91,0,0,0-13.61-2.2.47.47,0,0,1-.45-.49.45.45,0,0,1,.49-.45A64.07,64.07,0,0,1,98.29,320a.47.47,0,0,1-.14.93Z" style="fill:#fff"></path></g></g></svg>