<svg xmlns="http://www.w3.org/2000/svg" viewBox="0 0 500 500"><g id="freepik--Floor--inject-33"><path id="freepik--floor--inject-33" d="M90.19,426.19c89.93,43.28,235.75,43.28,325.69,0s89.93-113.44,0-156.72-235.76-43.28-325.69,0S.25,382.91,90.19,426.19Z" style="fill:#f5f5f5"></path></g><g id="freepik--Shadow--inject-33"><path d="M442.36,382c-21.71,10.26-56.85,10.14-78.49-.27s-21.58-27.15.13-37.41,56.85-10.13,78.49.27S464.07,371.72,442.36,382Z" style="fill:#e0e0e0"></path></g><g id="freepik--Clouds--inject-33"><g id="freepik--clouds--inject-33"><path d="M320.51,65.56l6.81,3.93c0-.3-.06-.6-.06-.9v-2c0-3.51,2.47-4.94,5.51-3.18a10.65,10.65,0,0,1,3.28,3.15c.5-4.41,4-6.06,8.17-3.63,4.55,2.63,8.24,9,8.24,14.27v3a7.88,7.88,0,0,1-.69,3.42l5.65,3.26a6.77,6.77,0,0,1,3.06,5.3c0,1.94-1.37,2.73-3.06,1.76L320.51,72.61a6.74,6.74,0,0,1-3.06-5.29C317.45,65.38,318.82,64.59,320.51,65.56Z" style="fill:#ebebeb"></path><path d="M291.35,85.41l5.14,3c0-.23,0-.46,0-.68V86.21c0-2.65,1.86-3.73,4.16-2.4a8,8,0,0,1,2.47,2.38c.38-3.33,3-4.57,6.17-2.74a13.72,13.72,0,0,1,6.22,10.77v2.23a5.8,5.8,0,0,1-.53,2.58l4.27,2.47a5.07,5.07,0,0,1,2.31,4c0,1.47-1,2.07-2.31,1.33L291.35,90.73a5.09,5.09,0,0,1-2.3-4C289.05,85.27,290.08,84.67,291.35,85.41Z" style="fill:#ebebeb"></path></g></g></svg>