<svg xmlns="http://www.w3.org/2000/svg" viewBox="0 0 750 500"><g id="freepik--Lamp--inject-19"><polyline points="439.64 227.89 491.84 256.8 489.88 260.48 438.14 231.03 439.64 227.89" style="fill:#6C63FF"></polyline><polygon points="437.07 225.16 439.47 221.49 440.87 222.35 438.72 226.05 437.07 225.16" style="fill:#6C63FF"></polygon><polygon points="485.91 252.23 488.59 253.77 479.85 309.55 475.71 309.6 485.91 252.23" style="fill:#6C63FF"></polygon><path d="M463.68,315.36s6.37-6.44,14.89-6a18.48,18.48,0,0,1,12.9,5.93Z" style="fill:#6C63FF"></path><path d="M437.12,250.45l-20.67-11.94,6-10.33a11.93,11.93,0,0,1,16.3-4.37h0a11.94,11.94,0,0,1,4.37,16.3Z" style="fill:#6C63FF"></path></g></svg>
