<svg xmlns="http://www.w3.org/2000/svg" viewBox="0 0 750 500"><g id="freepik--Plants--inject-19"><path d="M220.8,258.77a6.53,6.53,0,0,1,2.9,4.17,11.53,11.53,0,0,1-.16,5.19c-.76,3.28-3,6.42-5.4,8.84-2.51-2.77-2.66-7.11-2.6-9.32.1-3.49,2.41-9.74,5.26-8.88" style="fill:#6C63FF"></path><path d="M220.76,282.85a5.54,5.54,0,0,1,2.39-5,7.38,7.38,0,0,1,5.59-1.06,3.1,3.1,0,0,1,2.24,1.34,2.37,2.37,0,0,1-.24,2.39,4.73,4.73,0,0,1-2,1.53c-2.61,1.24-5.36,2-8,.82" style="fill:#6C63FF"></path><path d="M216.54,290.17a10.78,10.78,0,0,1,.64-2.14,9.93,9.93,0,0,1,1.11-2.17,21.22,21.22,0,0,1,1.74-2.41,11.09,11.09,0,0,1,4.36-3.18,8.26,8.26,0,0,1,1.59-.41,1.83,1.83,0,0,1,.6,0c0,.07-.84.16-2.09.69a11.86,11.86,0,0,0-4.17,3.18,24,24,0,0,0-1.74,2.35,11.45,11.45,0,0,0-1.16,2.08A15.38,15.38,0,0,1,216.54,290.17Z" style="fill:#263238"></path><path d="M219.46,263.68a5.72,5.72,0,0,1,0,1.13c0,.72-.1,1.77-.19,3.06-.19,2.59-.5,6.16-.92,10.1s-.92,7.48-1.33,10c-.21,1.28-.38,2.31-.52,3a6.56,6.56,0,0,1-.25,1.1,5.85,5.85,0,0,1,.1-1.13c.11-.78.24-1.81.4-3,.34-2.57.79-6.12,1.22-10.06s.76-7.43,1-10.07c.13-1.24.24-2.27.32-3.06A7.44,7.44,0,0,1,219.46,263.68Z" style="fill:#263238"></path><path d="M216.38,283.64a13,13,0,0,0-7.28-9.35c-1-.43-2.19-.7-2.95,0s-.56,2-.16,2.95a11.06,11.06,0,0,0,10.33,6.65" style="fill:#6C63FF"></path><path d="M209.83,277.27a1.89,1.89,0,0,1,.53.26,16.94,16.94,0,0,1,5.17,4.6,9.18,9.18,0,0,1,1.21,2.7,9,9,0,0,1,.27,2.4,8.86,8.86,0,0,1-.19,1.61,2.17,2.17,0,0,1-.16.58c-.08,0,.1-.85.08-2.19a10,10,0,0,0-.33-2.31,9.48,9.48,0,0,0-1.2-2.58,16.42,16.42,0,0,0-3.65-3.73A17.7,17.7,0,0,1,209.83,277.27Z" style="fill:#263238"></path><path d="M216.05,315.36h0a12.51,12.51,0,0,1-12.5-12.51v-12.5h25v12.5A12.51,12.51,0,0,1,216.05,315.36Z" style="fill:#263238"></path><path d="M228.56,296.5a2.35,2.35,0,0,1-.34.35l-1,.93L223.41,301l-.09.07-.11-.06L216,296.68h.21L209.42,301l-.1.07-.1-.08-4.15-3.25-1.14-.92a2.1,2.1,0,0,1-.38-.36,1.72,1.72,0,0,1,.45.27c.32.23.72.52,1.2.85l4.23,3.14h-.2l6.71-4.42.11-.07.11.06h0l7.21,4.42h-.2l3.87-3.13,1.09-.86C228.41,296.58,228.55,296.48,228.56,296.5Z" style="fill:#e0e0e0"></path><path d="M228.56,294a2.35,2.35,0,0,1-.34.35l-1,.93-3.77,3.25-.09.07-.11-.06L216,294.18h.21l-6.75,4.37-.1.07-.1-.08-4.15-3.25-1.14-.92a2.1,2.1,0,0,1-.38-.36,1.72,1.72,0,0,1,.45.27l1.2.85,4.23,3.14h-.2l6.71-4.42.11-.07.11.06h0l7.21,4.42h-.2l3.87-3.13,1.09-.86C228.41,294.08,228.55,294,228.56,294Z" style="fill:#e0e0e0"></path><path d="M228.56,299s-.11.14-.34.36l-1,.92-3.77,3.25-.09.08-.11-.07L216,299.23h.21l-6.75,4.37-.1.07-.1-.07c-1.67-1.32-3.08-2.42-4.15-3.25l-1.14-.93c-.26-.22-.39-.34-.38-.36a2.18,2.18,0,0,1,.45.27c.32.24.72.52,1.2.86l4.23,3.13h-.2l6.71-4.42.11-.07.11.07h0l7.21,4.41-.2,0,3.87-3.14,1.09-.85A1.93,1.93,0,0,1,228.56,299Z" style="fill:#e0e0e0"></path><path d="M552.56,344.72c-5.18.84-7.5,7.2-7,12.43s2.61,10.35,2,15.56c-.73,6.63-5.74,12.23-6.32,18.87-.69,7.83,4.85,14.78,6.5,22.46.81,3.74.7,7.7,2.09,11.26A14.07,14.07,0,0,0,577,420.44c.11-6-3.6-11.67-3.15-17.67.33-4.43,2.93-8.63,2.38-13-.67-5.25-5.53-9-7.25-14s-.06-10.52-.66-15.78c-1.06-9.43-6.29-16-15.75-15.25" style="fill:#6C63FF"></path><path d="M526.1,390.39c-.89,8.74,3,19,7.47,26.57a41.66,41.66,0,0,0,19.57,17c.91.38,2.05.7,2.82.08a2.79,2.79,0,0,0,.71-2.24,42.89,42.89,0,0,0-30.57-41.39" style="fill:#6C63FF"></path><g style="opacity:0.2"><path d="M526.1,390.39c-.89,8.74,3,19,7.47,26.57a41.66,41.66,0,0,0,19.57,17c.91.38,2.05.7,2.82.08a2.79,2.79,0,0,0,.71-2.24,42.89,42.89,0,0,0-30.57-41.39"></path></g><path d="M564.17,452.21a2,2,0,0,1-.25-.48l-.63-1.44c-.52-1.24-1.31-3-2.31-5.25a186.15,186.15,0,0,0-8.67-16.79,188.79,188.79,0,0,0-10.38-15.81c-1.43-1.95-2.61-3.52-3.44-4.59-.38-.5-.7-.92-.94-1.25a2.76,2.76,0,0,1-.31-.45s.15.12.38.39l1,1.19c.88,1,2.1,2.57,3.57,4.5A158.18,158.18,0,0,1,561.3,444.9c1,2.23,1.7,4.05,2.17,5.32l.54,1.47A3.05,3.05,0,0,1,564.17,452.21Z" style="fill:#263238"></path><path d="M558.54,368.9a5.17,5.17,0,0,1,.1.84c0,.59.1,1.39.17,2.41.14,2.13.33,5.15.57,8.85.47,7.48,1.13,17.81,1.94,29.21s1.59,21.73,2.17,29.2c.28,3.7.51,6.71.68,8.85.07,1,.12,1.81.16,2.4a5,5,0,0,1,0,.85s-.05-.29-.12-.84-.15-1.39-.26-2.4c-.2-2.13-.48-5.14-.83-8.83-.67-7.47-1.52-17.78-2.32-29.19S559.41,388.51,559,381c-.17-3.71-.31-6.72-.41-8.86,0-1-.06-1.82-.08-2.42A4.47,4.47,0,0,1,558.54,368.9Z" style="fill:#263238"></path><path d="M550.5,439.75h21.89v16.07a10.51,10.51,0,0,1-10.51,10.5h0a10.5,10.5,0,0,1-10.49-9.94Z" style="fill:#263238"></path></g></svg>
